<?xml version="1.0" encoding="UTF-8" standalone="no"?>
<svg
   xmlns:dc="http://purl.org/dc/elements/1.1/"
   xmlns:cc="http://creativecommons.org/ns#"
   xmlns:rdf="http://www.w3.org/1999/02/22-rdf-syntax-ns#"
   xmlns:svg="http://www.w3.org/2000/svg"
   xmlns="http://www.w3.org/2000/svg"
   xmlns:xlink="http://www.w3.org/1999/xlink"
   id="svg20"
   preserveAspectRatio="xMidYMid meet"
   viewBox="0 0 59.252468 84.094536"
   height="84.094536pt"
   width="59.252468pt"
   version="1.0">
  <defs
     id="defs24">
    <g
       id="cone">
      <polygon
         id="triangle"
         points="0,1 0.5,1 0,0 "
         transform="rotate(18,3.1568758,-0.5)" />
      <use
         height="100%"
         width="100%"
         y="0"
         x="0"
         xlink:href="#triangle"
         transform="scale(-1,1)"
         id="use10" />
    </g>
    <g
       style="fill:#ffffff"
       id="star"
       transform="matrix(300.3,0,0,300.3,1235,1050)">
      <use
         height="100%"
         width="100%"
         y="0"
         x="0"
         xlink:href="#cone"
         id="use13" />
      <use
         height="100%"
         width="100%"
         y="0"
         x="0"
         xlink:href="#cone"
         transform="rotate(72)"
         id="use15" />
      <use
         height="100%"
         width="100%"
         y="0"
         x="0"
         xlink:href="#cone"
         transform="rotate(-72)"
         id="use17" />
      <use
         height="100%"
         width="100%"
         y="0"
         x="0"
         xlink:href="#cone"
         transform="rotate(144)"
         id="use19" />
      <use
         height="100%"
         width="100%"
         y="0"
         x="0"
         xlink:href="#cone"
         transform="rotate(-144)"
         id="use21" />
    </g>
    <g
       id="even_star_row">
      <use
         height="100%"
         width="100%"
         y="0"
         x="0"
         id="star 1 even row"
         xlink:href="#star" />
      <use
         height="100%"
         width="100%"
         y="0"
         id="star 2 even row"
         xlink:href="#star"
         x="1235" />
      <use
         height="100%"
         width="100%"
         y="0"
         id="star 3 even row"
         xlink:href="#star"
         x="2470" />
      <use
         height="100%"
         width="100%"
         y="0"
         id="star 4 even row"
         xlink:href="#star"
         x="3705" />
      <use
         height="100%"
         width="100%"
         y="0"
         id="star 5 even row"
         xlink:href="#star"
         x="4940" />
    </g>
    <g
       id="odd_star_row">
      <use
         height="100%"
         width="100%"
         id="last 5 stars odd row"
         xlink:href="#even_star_row"
         x="617.5"
         y="-525" />
      <use
         height="100%"
         width="100%"
         id="star 1 odd row"
         xlink:href="#star"
         x="-617.5"
         y="-525" />
    </g>
  </defs>
  <metadata
     id="metadata2">
Created by potrace 1.10, written by Peter Selinger 2001-2011
<rdf:RDF>
  <cc:Work
     rdf:about="">
    <dc:format>image/svg+xml</dc:format>
    <dc:type
       rdf:resource="http://purl.org/dc/dcmitype/StillImage" />
    <dc:title></dc:title>
  </cc:Work>
</rdf:RDF>
</metadata>
  <g
     transform="matrix(0.05384615,0,0,0.05384615,-884.26454,-181.04138)"
     id="white stripes"
     style="fill:#ffffff" />
  <rect
     y="-152.47162"
     x="-332.15994"
     height="32.476742"
     width="0"
     id="rect2221"
     style="fill:#ffffff;fill-opacity:1;fill-rule:evenodd;stroke-width:0.20262307;stroke-linecap:butt;stroke-linejoin:miter;stroke-miterlimit:4;stroke-dasharray:none;stroke-dashoffset:0" />
  <rect
     y="-163.2972"
     x="-312.0553"
     height="15.465115"
     width="0"
     id="rect2223"
     style="fill:#ffffff;fill-opacity:1;fill-rule:evenodd;stroke-width:0.20262307;stroke-linecap:butt;stroke-linejoin:miter;stroke-miterlimit:4;stroke-dasharray:none;stroke-dashoffset:0" />
  <path
     id="path5187"
     d="m 17.326639,84.032505 c -2.075272,-0.07271 -2.788801,-0.181321 -2.887908,-0.439585 -0.147465,-0.38428 0.09706,-2.45957 1.007276,-8.548508 0.3411,-2.281838 0.837021,-5.741198 1.102031,-7.687473 0.26502,-1.946277 0.652521,-4.556284 0.861142,-5.800016 0.208613,-1.243737 0.30221,-2.396855 0.207993,-2.562495 C 17.151087,58.175026 14.842894,54.725066 11.292705,49.54151 4.4553967,39.558517 0.76569655,34.069324 0.35100065,33.263501 -0.28596294,32.02575 -0.1379277,31.495968 1.4792771,29.2255 2.3154924,28.051514 3.4938518,26.372305 4.0978656,25.493921 7.1312058,21.082747 12.59107,13.392508 13.048151,12.887446 c 0.219531,-0.242582 0.592556,-0.441061 0.828956,-0.441061 0.390853,0 14.95661,6.331038 17.550174,7.62822 0.693788,0.346997 1.176963,0.784345 1.320027,1.194798 0.266111,0.763507 -0.256071,4.879581 -0.695225,5.480166 -0.334648,0.457659 -1.294829,0.656451 -5.82251,1.205496 -4.337952,0.526039 -4.870217,0.363462 -7.417073,-2.265449 -0.967195,-0.998354 -1.863206,-1.750503 -1.991121,-1.67144 -0.276905,0.171133 0.252568,2.355363 0.762921,3.147306 1.0021,1.555012 0.615798,2.280171 -1.388109,2.605731 -1.528936,0.24839 -2.1086,0.574179 -1.714121,0.963395 0.127513,0.125815 1.952738,0.878232 4.056061,1.672037 2.828434,1.067468 3.98618,1.627488 4.446142,2.150703 0.342052,0.389083 0.625397,0.774029 0.629635,0.855438 0.0043,0.08141 0.544407,1.069797 1.200361,2.196419 10.100801,17.348381 9.873385,16.933755 9.689771,17.665326 -0.09235,0.367924 -0.714557,0.981227 -1.617686,1.594525 -0.80718,0.548153 -1.399221,1.107297 -1.31562,1.242546 0.08358,0.13525 0.71784,0.211634 1.409443,0.169743 l 1.257476,-0.07617 -0.05953,2.318447 c -0.03276,1.275148 -0.336331,5.667992 -0.674621,9.761874 -1.007686,12.194719 -1.087684,13.013935 -1.305256,13.365969 -0.197199,0.319064 -9.694755,0.562413 -14.871612,0.38104 z m 17.704082,-0.03559 c -0.969689,-0.111569 -1.220247,-0.780631 -1.052269,-2.809772 0.494758,-5.976651 0.888775,-10.421391 0.99889,-11.267717 0.06985,-0.536903 0.34039,-3.273497 0.601204,-6.08133 0.260798,-2.807821 0.584619,-5.215581 0.719612,-5.350566 0.164532,-0.164542 0.611325,-0.1617 1.355614,0.0086 0.610589,0.139727 1.164163,0.1667 1.230148,0.05995 0.06597,-0.106757 -0.522651,-1.272685 -1.308056,-2.590955 -0.78542,-1.318265 -2.22837,-3.769617 -3.206569,-5.447437 -0.978197,-1.677824 -2.025562,-3.43496 -2.327498,-3.904754 -0.301919,-0.469791 -1.95031,-3.25003 -3.663088,-6.17831 C 26.22227,36.7478 25.34266,35.032396 25.518458,34.8566 c 0.175805,-0.175802 0.917608,-0.165594 2.412136,0.03318 1.745591,0.232175 2.78821,0.569117 5.452909,1.762185 5.257318,2.353897 5.399615,2.446155 8.204288,5.319814 1.731437,1.774018 2.802654,2.688766 3.148662,2.688766 0.568197,0 1.57593,-0.667273 6.19947,-4.105015 1.657093,-1.232109 3.111476,-2.240201 3.23192,-2.240201 0.486104,0 0.455964,0.861739 -0.159364,4.55554 -1.505902,9.039846 -3.260277,13.439764 -6.990613,17.531981 l -1.713976,1.88023 0.143871,10.558172 c 0.131769,9.66909 0.109576,10.586582 -0.263368,10.895521 -0.314351,0.2604 -1.442206,0.337344 -4.944837,0.337344 -2.495675,0 -4.839666,-0.03477 -5.208835,-0.07723 z m 7.288985,-42.896548 c -1.783771,-1.907473 -2.129752,-2.400814 -1.952368,-2.784 0.118534,-0.256146 1.21421,-1.541735 2.434813,-2.85687 1.220604,-1.315132 2.683241,-2.928138 3.25026,-3.584463 0.567076,-0.656324 1.187112,-1.349386 1.377869,-1.54014 0.190758,-0.190752 1.455426,-1.594881 2.810383,-3.120281 1.354995,-1.525401 2.604621,-2.827579 2.776981,-2.893725 0.607287,-0.233037 6.234826,6.369471 6.234826,7.315014 0,0.339078 -0.781373,1.034666 -5.721161,5.093151 -2.123849,1.744931 -4.807888,3.967948 -5.964518,4.940025 -1.15661,0.972081 -2.322632,1.7634 -2.591078,1.758498 -0.294987,-0.0054 -1.345795,-0.926133 -2.656007,-2.327209 z M 34.246639,35.97094 c -1.874232,-0.870684 -3.461681,-1.63705 -3.527666,-1.703039 -0.335021,-0.33502 0.906991,-2.170987 6.443017,-9.524157 6.823609,-9.063382 6.994847,-9.267744 7.516326,-8.969389 0.78659,0.449994 7.008687,6.655703 7.008687,6.990188 0,0.545031 -0.260708,0.856181 -9.042591,10.791897 -1.42367,1.61071 -2.796333,3.17566 -3.050369,3.477671 -0.714822,0.849781 -1.614795,0.670848 -5.347404,-1.063171 z M 23.74364,31.938358 c -4.103136,-1.541141 -4.628013,-1.831052 -4.293826,-2.371587 0.166815,-0.269797 0.456397,-0.276448 1.610017,-0.03696 1.533338,0.31832 2.916053,0.210178 6.222489,-0.486667 4.494819,-0.9473 4.830753,-0.876124 4.011666,0.849963 -0.520842,1.09759 -2.804501,3.546548 -3.288577,3.526594 -0.196354,-0.0081 -2.114154,-0.674698 -4.261769,-1.481343 z m 10.009385,-8.604343 c 0.107428,-1.719329 0.0815,-2.943629 -0.06798,-3.210757 -0.132901,-0.237466 -1.490604,-1.046065 -3.017122,-1.796883 -1.623288,-0.798414 -2.805838,-1.529964 -2.848616,-1.762207 -0.07036,-0.382054 5.59542,-9.1774096 6.148088,-9.5440842 0.838622,-0.5563826 1.465809,-0.1263474 5.230236,3.5862032 l 3.825735,3.77298 -0.386694,0.691269 c -0.212682,0.380195 -1.750652,2.443726 -3.417733,4.585622 -1.667077,2.141901 -3.464979,4.470925 -3.995303,5.175607 -1.492054,1.982558 -1.676338,1.794865 -1.470613,-1.49775 z M 25.32994,15.668214 C 23.841068,15.168224 16.386831,11.856105 16.243515,11.630865 15.961276,11.187296 15.954517,11.199773 17.930016,8.5205253 18.960635,7.1227666 20.569271,4.9358471 21.504788,3.6607021 23.623277,0.773098 24.332001,0 24.860668,0 c 0.487626,0 2.700844,1.5813442 5.54317,3.9605784 1.681784,1.4077838 1.997676,1.7828668 1.871505,2.2221804 -0.198152,0.6899795 -5.972811,9.3868792 -6.316029,9.5122262 -0.144805,0.05288 -0.42803,0.04084 -0.629374,-0.02677 z"
     style="fill:#ffffff;fill-opacity:1;stroke:none;stroke-width:0;stroke-miterlimit:4;stroke-dasharray:none;stroke-opacity:1" />
</svg>
